# AST/ASF file generated using VICON BodyLanguage
# -----------------------------------------------
:version 1.10
:name VICON
:units
  mass 1.0
  length 0.45
  angle deg
:documentation
   .ast/.asf automatically generated from VICON data using
   VICON BodyBuilder and BodyLanguage model FoxedUp or BRILLIANT.MOD
:root
   order TX TY TZ RX RY RZ
   axis XYZ
   position 0 0 0  
   orientation 0 0 0 
:bonedata
  begin
     id 1 
     name lhipjoint
     direction 0.54267 -0.795011 0.271047 
     length 2.39899 
     axis 0 0 0  XYZ
  end
  begin
     id 2 
     name lfemur
     direction 0.34202 -0.939693 0  
     length 7.49701  
     axis 0 0 20  XYZ
    dof rx ry rz
    limits (-160.0 20.0)
           (-70.0 70.0)
           (-60.0 70.0)
  end
  begin
     id 3 
     name ltibia
     direction 0.34202 -0.939693 0   
     length 8.1668   
     axis 0 0 20   XYZ
    dof rx
    limits (-10.0 170.0)
  end
  begin
     id 4 
     name lfoot
     direction 0.0736283 -0.202292 0.976554   
     length 2.13544   
     axis -90 7.62852e-016 20   XYZ
    dof rx rz
    limits (-45.0 90.0)
           (-70.0 20.0)
  end
  begin
     id 5 
     name ltoes
     direction 1.53557e-011 -4.22024e-011 1   
     length 1.07411   
     axis -90 7.62852e-016 20   XYZ
    dof rx
    limits (-90.0 20.0)
  end
  begin
     id 6 
     name rhipjoint
     direction -0.538061 -0.797813 0.272002   
     length 2.39057  
     axis 0 0 0  XYZ 
  end
  begin
     id 7 
     name rfemur
     direction -0.34202 -0.939693 0   
     length 7.50152   
     axis 0 0 -20   XYZ
    dof rx ry rz
    limits (-160.0 20.0)
           (-70.0 70.0)
           (-70.0 60.0)
  end
  begin
     id 8 
     name rtibia
     direction -0.34202 -0.939693 0   
     length 8.05793   
     axis 0 0 -20   XYZ
    dof rx
    limits (-10.0 170.0)
 end
 begin
     id 9 
     name rfoot
     direction -0.0765195 -0.210236 0.974652   
     length 2.28698  
     axis -90 -7.62852e-016 -20   XYZ
    dof rx rz
    limits (-45.0 90.0)
           (-20.0 70.0)
  end
  begin
     id 10 
     name rtoes
     direction -1.53542e-011 -4.21847e-011 1   
     length 1.14762   
     axis -90 -7.62852e-016 -20   XYZ
    dof rx
    limits (-90.0 20.0)
  end
  begin
     id 11 
     name lowerback
     direction -0.0217239 0.996592 -0.0795765   
     length 2.08176   
     axis 0 0 0   XYZ
    dof rx ry rz
    limits (-20.0 45.0)
           (-30.0 30.0)
           (-30.0 30.0)
  end
  begin
     id 12 
     name upperback
     direction -0.00563773 0.999651 -0.0258155   
     length 2.08898   
     axis 0 0 0   XYZ
    dof rx ry rz
    limits (-20.0 45.0)
           (-30.0 30.0)
           (-30.0 30.0)
  end
  begin
     id 13 
     name thorax
     direction 0.0032706 0.999923 0.0119599   
     length 2.0968   
     axis 0 0 0   XYZ
    dof rx ry rz
    limits (-20.0 45.0)
           (-30.0 30.0)
           (-30.0 30.0)
  end
  begin
     id 14 
     name lowerneck
     direction -0.0285886 0.99568 0.0883427   
     length 1.81272   
     axis 0 0 0   XYZ
    dof rx ry rz
    limits (-20.0 45.0)
           (-30.0 30.0)
           (-30.0 30.0)
  end
  begin
     id 15 
     name upperneck
     direction 0.0807535 0.97985 -0.18268   
     length 1.82518   
     axis 0 0 0   XYZ
    dof rx ry rz
    limits (-20.0 45.0)
           (-30.0 30.0)
           (-30.0 30.0)
  end
  begin
     id 16
     name head
     direction 0.0236605 0.997053 -0.0729767  
     length 1.84443  
     axis 0 0 0   XYZ
    dof rx ry rz
    limits (-20.0 45.0)
           (-30.0 30.0)
           (-30.0 30.0)
  end
  begin
     id 17 
     name lclavicle
     direction 0.918986 0.39378 -0.0200683  
     length 3.27822  
     axis 0 0 0   XYZ
    dof ry rz
    limits (-20.0 10.0)
           (0.0 20.0)
  end
  begin
     id 18 
     name lhumerus
     direction 1 -4.4897e-011 2.09544e-027   
     length 5.5568   
     axis 180 -30 -90   XYZ
    dof rx ry rz
    limits (-60.0 90.0)
           (-90.0 90.0)
           (-90.0 90.0)
  end
  begin
     id 19
     name lradius
     direction 1 -4.48957e-011 -1.27696e-026   
     length 3.63979   
     axis 180 -30 -90   XYZ
    dof rx
    limits (-10.0 170.0)
  end
  begin
     id 20
     name lwrist
     direction 1 -4.49001e-011 -1.49001e-026   
     length 1.8199   
     axis 9.0955e-015 90 90   XYZ
    dof ry
    limits (-180.0 0.0)
 end
  begin
     id 21 
     name lhand
     direction 1 -4.48709e-011 -2.9758e-026   
     length 0.569419   
     axis 1.90115e-014 90 90   XYZ
    dof rx rz
    limits (-90.0 90.0)
           (-45.0 45.0)
  end
  begin
     id 22 
     name lfingers
     direction 1 -4.49175e-011 -5.96505e-026   
     length 0.45908   
     axis 3.80223e-014 90 90   XYZ
    dof rx
    limits (0.0 90.0)
  end
  begin
     id 23
     name lthumb
     direction 0.707107 -6.34864e-011 0.707107   
     length 0.65915   
     axis -90 45 -3.84942e-014   XYZ
    dof rx rz
    limits (-45.0 45.0)
           (-45.0 45.0)
  end
  begin
     id 24 
     name rclavicle
     direction -0.911913 0.396426 -0.106115   
     length 3.46301  
     axis 0 0 0   XYZ 
    dof ry rz
    limits (-10.0 20.0)
           (-20.0 0.0)
  end
  begin
     id 25 
     name rhumerus
     direction -1 -4.48965e-011 7.78516e-028  
     length 5.34339   
     axis 180 30 90   XYZ
    dof rx ry rz
    limits (-90.0 60.0)
           (-90.0 90.0)
           (-90.0 90.0)
  end
  begin
     id 26 
     name rradius
     direction -1 -4.48948e-011 -5.79823e-027   
     length 3.65101   
     axis 180 30 90   XYZ
    dof rx
    limits (-10.0 170.0)
  end
  begin
     id 27 
     name rwrist
     direction -1 -4.48995e-011 -1.48996e-026   
     length 1.8255   
     axis 9.0955e-015 -90 -90   XYZ
    dof ry
    limits (-180.0 0.0)
  end
  begin
     id 28
     name rhand
     direction -1 -4.48957e-011 -2.97937e-026   
     length 0.694249   
     axis 1.90115e-014 -90 -90   XYZ
    dof rx rz
    limits (-90.0 90.0)
           (-45.0 45.0)
  end
  begin
     id 29
     name rfingers
     direction -1 -4.4898e-011 -5.95943e-026   
     length 0.559721   
     axis 3.80223e-014 -90 -90   XYZ
    dof rx
    limits (0.0 90.0)
  end
  begin
     id 30
     name rthumb
     direction -0.707107 -6.34969e-011 0.707107   
     length 0.803651   
     axis -90 -45 3.84942e-014   XYZ
    dof rx rz
    limits (-45.0 45.0)
           (-45.0 45.0)
  end
:hierarchy
  begin
    root lhipjoint rhipjoint lowerback
    lhipjoint lfemur
    lfemur ltibia
    ltibia lfoot
    lfoot ltoes
    rhipjoint rfemur
    rfemur rtibia
    rtibia rfoot
    rfoot rtoes
    lowerback upperback
    upperback thorax
    thorax lowerneck lclavicle rclavicle
    lowerneck upperneck
    upperneck head
    lclavicle lhumerus
    lhumerus lradius
    lradius lwrist
    lwrist lhand lthumb
    lhand lfingers
    rclavicle rhumerus
    rhumerus rradius
    rradius rwrist
    rwrist rhand rthumb
    rhand rfingers
  end

#!OML:ASF H:\Terrain\Walking\May29\JustinRory\rory.ASF
:FULLY-SPECIFIED
:DEGREES
79
root 3.26721 18.4717 21.7023 -172.968 7.77197 188.602
lowerback 2.7108 3.23711 6.66696
upperback 2.13 4.55176 0.417057
thorax 1.16364 2.40725 -3.34718
lowerneck -11.0618 -5.4613 -4.9327
upperneck 21.897 -8.34835 2.85532
head 9.00391 -4.38418 0.801931
rclavicle 1.83876e-014 5.56597e-015
rhumerus -18.7411 -33.7236 -56.9769
rradius 32.359
rwrist -5.66242
rhand -16.2582 32.5384
rfingers 7.12502
rthumb 9.95107 2.79365
lclavicle 1.83876e-014 5.56597e-015
lhumerus -46.7327 15.1668 57.2738
lradius 22.8382
lwrist -5.25398
lhand -18.7329 21.7424
lfingers 7.12502
lthumb 7.56296 51.5872
rfemur 10.6724 9.54913 28.6276
rtibia 11.8809
rfoot -11.1892 -4.59986
rtoes -9.9024
lfemur -28.5698 -4.61292 0.178969
ltibia 19.3039
lfoot -9.96878 18.8561
ltoes 12.7919
80
root 3.2193 18.4797 21.5141 -173.023 7.57758 188.374
lowerback 2.81097 3.22213 6.46953
upperback 1.84913 4.52657 0.22946
thorax 0.814451 2.3682 -3.44993
lowerneck -10.443 -5.6474 -5.17844
upperneck 22.0004 -8.7488 3.18926
head 8.9697 -4.59 0.922659
rclavicle 4.70126e-014 -1.19271e-015
rhumerus -18.9047 -34.7717 -56.3094
rradius 32.2574
rwrist -5.62005
rhand -17.1173 32.3576
rfingers 7.12502
rthumb 9.1222 2.5749
lclavicle 4.70126e-014 -1.19271e-015
lhumerus -47.3602 15.1062 56.603
lradius 22.8817
lwrist -5.29592
lhand -30.5885 6.23361
lfingers 7.12502
lthumb -3.88579 36.1779
rfemur 10.9995 9.67217 28.2234
rtibia 12.4282
rfoot -10.9729 -4.26824
rtoes -9.1727
lfemur -28.6857 -4.29603 -0.544544
ltibia 20.2827
lfoot -8.3054 18.7845
ltoes 8.4504
81
root 3.1725 18.4764 21.3285 -173.256 7.36056 188.087
lowerback 2.90812 3.23096 6.14204
upperback 1.85397 4.53409 0.109155
thorax 0.749611 2.36604 -3.39897
lowerneck -10.4914 -5.87031 -5.54076
upperneck 22.401 -9.15339 3.53948
head 9.17191 -4.78575 1.04021
rclavicle -6.22196e-014 3.97569e-015
rhumerus -18.7357 -35.8594 -55.7777
rradius 32.3119
rwrist -5.97869
rhand -17.8401 32.2857
rfingers 7.12502
rthumb 8.42467 2.47372
lclavicle -6.22196e-014 3.97569e-015
lhumerus -47.4298 15.4191 56.0818
lradius 22.7419
lwrist -5.43174
lhand -31.5216 6.71023
lfingers 7.12502
lthumb -4.78677 36.6362
rfemur 11.4363 9.93986 27.8515
rtibia 13.1229
rfoot -10.4987 -4.10003
rtoes -9.78737
lfemur -28.6606 -3.8863 -1.40459
ltibia 21.355
lfoot -7.02254 18.4773
ltoes 4.73788
82
root 3.12884 18.4665 21.1426 -173.514 6.99248 187.957
lowerback 2.87724 3.1566 5.95997
upperback 2.06461 4.43022 0.0688612
thorax 0.962331 2.32687 -3.32848
lowerneck -11.081 -6.07148 -5.99497
upperneck 23.0446 -9.47503 3.85355
head 9.56431 -4.93594 1.14693
rclavicle -2.38542e-015 -1.43125e-014
rhumerus -18.2363 -37.1133 -55.4971
rradius 32.4822
rwrist -6.35155
rhand -17.4906 32.2775
rfingers 7.12502
rthumb 8.76192 2.47939
lclavicle -2.38542e-015 -1.43125e-014
lhumerus -47.162 16.1537 55.6367
lradius 22.5629
lwrist -5.60498
lhand -29.5058 12.0641
lfingers 7.12502
lthumb -2.84021 42.0249
rfemur 11.7112 10.068 27.7137
rtibia 14.1395
rfoot -9.84812 -3.98168
rtoes -11.4127
lfemur -28.6378 -3.58992 -2.05745
ltibia 22.4466
lfoot -6.04763 17.7441
ltoes 0.74589
83
root 3.08914 18.4675 20.9565 -173.799 6.60878 187.704
lowerback 2.87363 3.10976 5.6091
upperback 2.09499 4.35695 -0.0380038
thorax 0.969456 2.28676 -3.24237
lowerneck -10.7349 -6.26167 -6.21063
upperneck 23.2332 -9.84974 4.06005
head 9.60952 -5.13029 1.21179
rclavicle 2.14687e-014 -1.51076e-014
rhumerus -18.3514 -37.7539 -55.0205
rradius 32.7996
rwrist -7.06886
rhand -17.1272 32.3042
rfingers 7.12502
rthumb 9.11257 2.52104
lclavicle 2.14687e-014 -1.51076e-014
lhumerus -47.1275 16.5045 55.1721
lradius 22.3858
lwrist -5.72818
lhand -26.059 17.8731
lfingers 7.12502
lthumb 0.48876 47.8523
rfemur 11.7118 9.80287 27.3795
rtibia 15.5529
rfoot -9.0821 -3.6618
rtoes -13.1416
lfemur -28.5763 -3.46115 -2.74581
ltibia 23.4523
lfoot -5.45846 16.8443
ltoes -2.03494
84
root 3.04978 18.4846 20.7701 -174.054 6.29614 187.254
lowerback 2.90672 3.13274 5.04054
upperback 2.05886 4.37189 -0.219386
thorax 0.885451 2.28316 -3.11735
lowerneck -10.1501 -6.49686 -6.28489
upperneck 23.2096 -10.2998 4.22738
head 9.53107 -5.35577 1.24452
rclavicle 2.0773e-014 9.54166e-015
rhumerus -18.6705 -37.9896 -54.4939
rradius 33.179
rwrist -8.12787
rhand -17.534 32.023
rfingers 7.12502
rthumb 8.72003 2.2231
lclavicle 2.0773e-014 9.54166e-015
lhumerus -47.0378 16.5976 54.8121
lradius 22.1914
lwrist -5.71272
lhand -22.4886 20.9357
lfingers 7.12502
lthumb 3.93695 50.8791
rfemur 11.4173 9.51812 26.7758
rtibia 17.4075
rfoot -8.44016 -3.21439
rtoes -14.1554
lfemur -28.4467 -3.31367 -3.59551
ltibia 24.2779
lfoot -5.06907 15.9796
ltoes -1.01016
85
root 3.00718 18.4995 20.5833 -174.208 5.9638 186.745
lowerback 2.81464 3.10148 4.4026
upperback 2.30185 4.31618 -0.366535
thorax 1.1447 2.26258 -2.89873
lowerneck -10.7354 -6.83961 -6.38318
upperneck 23.4042 -10.7321 4.27118
head 9.74558 -5.5321 1.19342
rclavicle -2.37548e-014 6.36111e-015
rhumerus -18.2038 -38.6483 -54.3691
rradius 33.4992
rwrist -8.81398
rhand -18.2031 31.776
rfingers 7.12502
rthumb 8.07433 1.95022
lclavicle -2.37548e-014 6.36111e-015
lhumerus -46.4614 17.1909 54.6932
lradius 22.0132
lwrist -5.96739
lhand -19.0507 21.578
lfingers 7.12502
lthumb 7.25617 51.4335
rfemur 10.847 9.31204 26.0845
rtibia 19.6091
rfoot -7.90481 -2.70495
rtoes -14.7052
lfemur -28.3425 -3.16447 -4.54718
ltibia 24.9996
lfoot -4.7557 15.2253
ltoes -2.4118
86
root 2.96601 18.5075 20.4008 -174.371 5.63435 186.3
lowerback 2.88786 3.26944 4.07706
upperback 1.92599 4.52322 -0.74595
thorax 0.739637 2.34122 -3.12858
lowerneck -9.19414 -7.10559 -6.29849
upperneck 23.0919 -11.3877 4.61783
head 9.40137 -5.86499 1.28139
rclavicle 6.87795e-014 0
rhumerus -19.8917 -38.589 -53.2384
rradius 34.2444
rwrist -9.94931
rhand -18.5954 32.0893
rfingers 7.12502
rthumb 7.69571 2.24934
lclavicle 6.87795e-014 0
lhumerus -46.4697 16.2 54.4471
lradius 21.9788
lwrist -5.92567
lhand -18.6258 21.6738
lfingers 7.12502
lthumb 7.66637 51.5149
rfemur 10.1033 8.97916 25.4323
rtibia 21.9953
rfoot -6.9553 -2.0961
rtoes -15.3142
lfemur -28.1655 -2.96953 -5.48044
ltibia 25.7136
lfoot -4.5866 14.6034
ltoes -3.28128
87
root 2.9268 18.5122 20.2237 -174.697 5.40275 186.137
lowerback 3.21097 3.34129 3.9816
upperback 1.83377 4.6309 -0.946189
thorax 0.482611 2.38839 -3.30806
lowerneck -8.61112 -7.32736 -6.5173
upperneck 23.0914 -11.8798 5.08019
head 9.36729 -6.09901 1.43385
rclavicle -5.84427e-014 5.56597e-015
rhumerus -20.6441 -38.3297 -52.7175
rradius 34.925
rwrist -11.318
rhand -19.1074 32.3138
rfingers 7.12502
rthumb 7.20152 2.45639
lclavicle -5.84427e-014 5.56597e-015
lhumerus -46.2322 16.1283 54.1381
lradius 21.8104
lwrist -6.03819
lhand -20.1466 21.807
lfingers 7.12502
lthumb 6.19828 51.6963
rfemur 9.41838 8.62567 25.0669
rtibia 24.5031
rfoot -5.70505 -1.35256
rtoes -14.3783
lfemur -27.6967 -2.603 -6.10726
ltibia 26.4242
lfoot -4.62389 13.8331
ltoes -3.97678
88
root 2.88394 18.5144 20.043 -175.038 5.16314 186.111
lowerback 3.1778 3.28846 3.80921
upperback 2.16518 4.56789 -0.82308
thorax 0.812371 2.37394 -3.06926
lowerneck -9.02182 -7.47889 -7.19383
upperneck 23.4399 -12.1109 5.51475
head 9.65692 -6.2061 1.63186
rclavicle -1.98785e-016 -2.38542e-015
rhumerus -19.9681 -38.7864 -52.573
rradius 35.0586
rwrist -11.8877
rhand -19.9105 31.9573
rfingers 7.12502
rthumb 6.42625 2.07481
lclavicle -1.98785e-016 -2.38542e-015
lhumerus -45.7416 17.2593 54.0903
lradius 21.578
lwrist -6.58285
lhand -20.4851 22.1769
lfingers 7.12502
lthumb 5.8715 52.0756
rfemur 8.70968 8.18448 24.7937
rtibia 27.0432
rfoot -4.27192 -0.572911
rtoes -13.0375
lfemur -27.1612 -2.19716 -6.56426
ltibia 27.1516
lfoot -4.87089 12.8223
ltoes -5.22956
89
root 2.84201 18.5223 19.8597 -175.214 5.01779 185.978
lowerback 2.94777 3.34505 3.55249
upperback 2.38613 4.63713 -0.801038
thorax 1.15097 2.41946 -2.87991
lowerneck -9.15593 -7.66955 -7.69778
upperneck 23.6495 -12.4219 5.88665
head 9.84017 -6.35197 1.78607
rclavicle 2.62396e-014 1.43125e-014
rhumerus -19.5598 -39.7585 -52.169
rradius 35.0172
rwrist -11.8194
rhand -20.1796 31.4069
rfingers 7.12502
rthumb 6.16639 1.51661
lclavicle 2.62396e-014 1.43125e-014
lhumerus -45.2082 17.8233 54.2628
lradius 21.5321
lwrist -6.96006
lhand -19.5753 22.3244
lfingers 7.12502
lthumb 6.74979 52.1968
rfemur 7.74294 7.71346 24.3057
rtibia 29.5687
rfoot -2.34955 0.165168
rtoes -10.9459
lfemur -26.7624 -1.7297 -7.10984
ltibia 27.8867
lfoot -5.23345 11.77
ltoes -5.69244
90
root 2.80306 18.5348 19.6841 -175.326 5.05385 185.773
lowerback 2.92695 3.44815 3.23195
upperback 2.38068 4.76847 -0.906832
thorax 1.14941 2.48158 -2.81032
lowerneck -8.89799 -7.83718 -7.67428
upperneck 23.632 -12.6909 5.83701
head 9.80128 -6.49083 1.7414
rclavicle 4.69132e-014 2.14687e-014
rhumerus -19.5442 -40.2226 -51.8567
rradius 35.214
rwrist -11.8844
rhand -19.3779 30.9907
rfingers 7.12502
rthumb 6.94034 1.1245
lclavicle 4.69132e-014 2.14687e-014
lhumerus -44.8854 17.6182 54.4576
lradius 21.6565
lwrist -6.70077
lhand -18.9385 21.9298
lfingers 7.12502
lthumb 7.36454 51.7816
rfemur 6.53937 7.3147 23.6811
rtibia 32.1528
rfoot 0.265662 0.763145
rtoes -7.55791
lfemur -26.3292 -1.24997 -7.69182
ltibia 28.4741
lfoot -5.6556 10.9303
ltoes -7.17873
91
root 2.76305 18.5483 19.5133 -175.472 4.96284 185.474
lowerback 2.98899 3.46255 2.81803
upperback 2.42378 4.78589 -1.00329
thorax 1.13397 2.48757 -2.68257
lowerneck -9.03294 -7.87613 -7.61281
upperneck 23.9072 -12.7669 5.70029
head 9.91704 -6.53507 1.66311
rclavicle 4.17448e-014 3.18055e-015
rhumerus -19.2684 -40.5905 -51.7688
rradius 35.3401
rwrist -11.9272
rhand -18.8163 30.7909
rfingers 7.12502
rthumb 7.48248 0.943246
lclavicle 4.17448e-014 3.18055e-015
lhumerus -44.4765 17.4161 54.777
lradius 21.7284
lwrist -6.08151
lhand -19.0537 22.3657
lfingers 7.12502
lthumb 7.25333 52.2214
rfemur 5.24045 6.95681 23.0181
rtibia 34.807
rfoot 3.19644 1.06728
rtoes -2.71037
lfemur -25.8111 -1.08977 -8.33235
ltibia 28.8366
lfoot -6.14391 10.384
ltoes -9.86682
92
root 2.7222 18.5668 19.3374 -175.58 4.74358 184.976
lowerback 2.9416 3.52185 2.34066
upperback 2.42376 4.85911 -1.22591
thorax 1.14458 2.52106 -2.64333
lowerneck -9.11792 -7.93169 -7.69151
upperneck 24.4337 -13.0201 5.90443
head 10.1629 -6.65403 1.69472
rclavicle 3.63776e-014 2.3059e-014
rhumerus -19.3454 -40.929 -51.4466
rradius 35.4116
rwrist -12.2913
rhand -18.8618 31.1049
rfingers 7.12502
rthumb 7.43853 1.2557
lclavicle 3.63776e-014 2.3059e-014
lhumerus -43.908 17.1187 55.098
lradius 21.802
lwrist -5.76155
lhand -19.1373 23.0077
lfingers 7.12502
lthumb 7.17264 52.8661
rfemur 3.80462 6.68685 22.1911
rtibia 37.5217
rfoot 6.06922 1.55346
rtoes 1.85361
lfemur -25.2591 -1.22246 -9.15255
ltibia 29.0017
lfoot -6.76798 10.0843
ltoes -10.4952
